<?xml version="1.0" encoding="UTF-8"?>
<svg id="Capa_1" data-name="Capa 1" xmlns="http://www.w3.org/2000/svg" viewBox="0 0 650 591.46">
  <defs>
    <style>
      .cls-1 {
        fill: #875b35;
      }

      .cls-1, .cls-2, .cls-3, .cls-4, .cls-5, .cls-6, .cls-7, .cls-8 {
        stroke-width: 0px;
      }

      .cls-2 {
        fill: #9f7e61;
      }

      .cls-3 {
        fill: #532a07;
      }

      .cls-4 {
        fill: #a06937;
      }

      .cls-5 {
        fill: #b6a08e;
      }

      .cls-6 {
        fill: #cec3ba;
      }

      .cls-7 {
        fill: #7f4818;
      }

      .cls-8 {
        fill: #6f3809;
      }
    </style>
  </defs>
  <polygon class="cls-4" points="322.14 568.74 7.64 437.39 7.64 450.86 325 583.4 325 583.4 325 569.94 322.14 568.74"/>
  <polygon class="cls-4" points="373.57 539.45 452.12 506.67 401.12 486.96 373.57 498.46 373.57 539.45"/>
  <polygon class="cls-4" points="511.78 481.78 590.72 448.84 541.78 428.28 511.78 440.79 511.78 481.78"/>
  <polygon class="cls-4" points="267.12 535.53 276.44 539.42 276.44 498.46 246.74 486.07 197.55 506.53 267.09 535.55 267.12 535.53"/>
  <polygon class="cls-4" points="138.22 456.74 108.23 469.25 138.22 481.76 138.22 456.74"/>
  <polygon class="cls-4" points="138.22 456.44 138.22 440.79 108.83 428.53 59.4 448.88 108.23 469.25 138.22 456.44"/>
  <polygon class="cls-7" points="325 591.46 433.22 546.24 325 591.46 325 591.46"/>
  <polygon class="cls-7" points="642.24 437.39 327.86 568.74 325 569.94 325 569.94 325 583.4 642.24 450.86 642.24 437.39"/>
  <path class="cls-8" d="M650,354.29l-86.28-36v47.31l-112.92,47.12,41.89.45-167.69,70.51-62.86-26.26,108.33-45.55,62.04.66-106.65-44.5-101.35,42.29,118.86,1.27-95.59,39.88-62.86-26.23,22.97-9.59-13.82-5.77-22.95,9.58-62.89-26.23,22.97-9.58-12.27-5.12-22.95,9.57-75.74-31.59,67.75-28.62v-10.3L0,354.29v78.79l.21.09H.21v22.64l324.79,135.65h0l108.22-45.22,216.44-90.43v-22.59l.33-.14v-78.79ZM82.88,391.75l242.12,101.02,94.52-39.44h0s17.42-7.27,17.42-7.27h0s78.3-32.67,78.3-32.67l2.95.03,120.21-51.42v17.9l-313.4,130.77h0S11.6,379.91,11.6,379.91v-17.9l71.28,29.74ZM186.78,461.06v37.39l-36.97-15.42v-37.39l36.97,15.42ZM108.83,428.53l29.38,12.26v15.65l-29.98,12.81,29.98-12.51v25.01l-29.98-12.5-48.83-20.38,49.43-20.34ZM246.74,486.07l29.69,12.39v40.96l-9.31-3.89h-.03s-69.54-29-69.54-29l49.19-20.46ZM323.57,518.13l1.43.6h0s0,37.39,0,37.39l-36.97-15.42v-37.39l35.54,14.83ZM601.43,440.77l-44.62-18.77,44.62-18.62v37.39ZM590.72,448.84l-78.94,32.94v-40.99l30-12.52,48.94,20.57ZM463.22,498.44l-47.52-17.56,47.52-19.83v37.39ZM452.12,506.67l-78.55,32.78v-40.99l27.56-11.5,51,19.71ZM48.57,403.39v37.39l-36.97-15.42v-37.39l36.97,15.42ZM325,583.4L7.64,450.86v-13.47l314.5,131.35,2.86,1.2h0s2.86-1.2,2.86-1.2l314.37-131.35v13.47l-317.24,132.55h0Z"/>
  <polygon class="cls-4" points="325 510.68 325 510.68 325 492.78 82.88 391.75 11.6 362.01 11.6 379.91 325 510.68"/>
  <polygon class="cls-7" points="288.03 540.69 325 556.11 325 518.73 325 518.73 323.57 518.13 288.03 503.3 288.03 540.69"/>
  <polygon class="cls-7" points="463.22 498.44 463.22 461.06 415.7 480.88 463.22 498.44"/>
  <polygon class="cls-7" points="556.82 422 601.43 440.77 601.43 403.39 556.82 422"/>
  <polygon class="cls-7" points="149.82 483.02 186.78 498.44 186.78 461.06 149.82 445.63 149.82 483.02"/>
  <polygon class="cls-7" points="48.57 440.77 48.57 403.39 11.6 387.96 11.6 425.35 48.57 440.77"/>
  <polygon class="cls-4" points="432.51 412.52 370.48 411.86 262.14 457.41 325 483.67 492.69 413.16 450.8 412.71 441.89 416.43 432.51 412.52"/>
  <polygon class="cls-4" points="207.9 415.63 184.92 425.21 247.78 451.44 343.37 411.57 224.51 410.3 209.82 416.43 207.9 415.63"/>
  <polygon class="cls-4" points="131.2 383.62 108.23 393.21 171.13 419.43 194.08 409.86 131.2 383.62"/>
  <polygon class="cls-4" points="87.99 327.87 20.25 356.49 95.99 388.08 118.93 378.51 87.99 365.6 87.99 327.87"/>
  <polygon class="cls-7" points="325 510.68 638.4 379.91 638.4 362.01 518.19 413.43 515.24 413.4 436.94 446.07 436.94 446.07 419.52 453.34 419.52 453.34 325 492.78 325 510.68"/>
  <polygon class="cls-5" points="108.85 232.42 209.82 274.55 248.25 258.52 147.28 216.39 108.85 232.42"/>
  <polygon class="cls-5" points="168.38 207.58 269.67 249.58 310.8 232.42 236.4 201.38 209.82 190.29 168.38 207.58"/>
  <path class="cls-6" d="M204.03,401.44v-116.74l-104.44-43.57v116.74l104.44,43.57ZM104.25,312.43v-13.5l65.38,27.28v13.5l-65.38-27.28ZM104.25,319.32l65.38,27.28v13.5l-65.38-27.28v-13.5ZM104.25,339.71l65.38,27.28v13.5l-65.38-27.28v-13.5Z"/>
  <polygon class="cls-2" points="320.06 357.87 320.06 241.12 277.81 258.75 277.81 297.63 256.37 306.57 256.37 267.7 215.62 284.7 215.62 401.44 320.06 357.87"/>
  <polygon class="cls-6" points="147.28 216.39 248.25 258.52 269.67 249.58 168.38 207.58 147.28 216.39"/>
  <polygon class="cls-5" points="277.81 297.63 277.81 258.75 256.37 267.7 256.37 306.57 277.81 297.63"/>
  <path class="cls-3" d="M87.99,327.87v37.73l30.94,12.91,12.27,5.12,62.88,26.24,13.82,5.77,1.93.8,14.69-6.13,101.35-42.29,106.65,44.5,9.38,3.91,8.91-3.72,112.92-47.12v-137.04l-116.04-48.41V50.83L325.86,0l-121.83,50.83v129.31l-116.03,48.41v99.31ZM552.13,357.87l-104.44,43.57v-116.74l40.75-17,21.44-8.95,42.25-17.63v116.74ZM99.59,241.12l104.44,43.57v116.74l-104.44-43.57v-116.74ZM215.62,284.7l40.75-17,21.44-8.95,42.25-17.63v116.74l-104.44,43.57v-116.74ZM331.66,357.87v-116.74l50.06,20.89,54.38,22.69v116.74l-54.38-22.69-50.06-20.89ZM320.06,106.97v116.74l-104.44-43.57V63.4l104.44,43.57ZM501.74,249.58l-21.42,8.93-38.43,16.03-100.97-42.13,38.43-16.04,21.1-8.8,15.47-6.46,25.97-10.83,100.98,42.13-41.13,17.16ZM436.09,180.14l-104.44,43.57v-116.74l40.75-17,21.44-8.95,42.25-17.63v116.74ZM426.84,54.7l-41.13,17.16-21.42,8.94-38.43,16.03-100.98-42.13,38.43-16.03,21.1-8.8,41.44-17.29,100.98,42.13ZM310.8,232.42l-41.13,17.16-21.42,8.93-38.43,16.03-100.98-42.13,38.43-16.03,21.1-8.8,41.44-17.29,26.58,11.09,74.39,31.04Z"/>
  <polygon class="cls-2" points="169.63 380.49 169.63 366.99 104.25 339.71 104.25 353.21 169.63 380.49"/>
  <polygon class="cls-2" points="169.63 360.1 169.63 346.6 104.25 319.32 104.25 332.82 169.63 360.1"/>
  <polygon class="cls-2" points="169.63 339.71 169.63 326.21 104.25 298.93 104.25 312.43 169.63 339.71"/>
  <polygon class="cls-1" points="415.92 201.13 400.45 207.58 501.74 249.58 542.87 232.42 441.89 190.29 415.92 201.13"/>
  <polygon class="cls-1" points="340.92 232.42 441.89 274.55 480.32 258.52 379.35 216.39 340.92 232.42"/>
  <polygon class="cls-6" points="381.71 317.87 401.69 326.21 401.69 339.71 381.71 331.37 381.71 338.26 401.69 346.6 401.69 360.1 381.71 351.76 381.71 358.65 401.69 366.99 401.69 380.49 381.71 372.15 381.71 378.75 436.09 401.44 436.09 284.7 381.71 262.01 381.71 317.87"/>
  <polygon class="cls-2" points="509.88 297.63 488.44 306.57 488.44 267.7 447.69 284.7 447.69 401.44 552.13 357.87 552.13 241.12 509.88 258.75 509.88 297.63"/>
  <polygon class="cls-6" points="379.35 216.39 480.32 258.52 501.74 249.58 400.45 207.58 379.35 216.39"/>
  <polygon class="cls-5" points="488.44 306.57 509.88 297.63 509.88 258.75 488.44 267.7 488.44 306.57"/>
  <polygon class="cls-2" points="381.71 372.15 336.32 353.21 336.32 339.71 381.71 358.65 381.71 351.76 336.32 332.82 336.32 319.32 381.71 338.26 381.71 331.37 336.32 312.43 336.32 298.93 381.71 317.87 381.71 262.01 331.66 241.12 331.66 357.87 381.71 378.75 381.71 372.15"/>
  <polygon class="cls-2" points="401.69 366.99 381.71 358.65 381.71 372.15 401.69 380.49 401.69 366.99"/>
  <polygon class="cls-1" points="336.32 339.71 336.32 353.21 381.71 372.15 381.71 358.65 336.32 339.71"/>
  <polygon class="cls-2" points="401.69 360.1 401.69 346.6 381.71 338.26 381.71 351.76 401.69 360.1"/>
  <polygon class="cls-1" points="381.71 338.26 336.32 319.32 336.32 332.82 381.71 351.76 381.71 338.26"/>
  <polygon class="cls-2" points="401.69 339.71 401.69 326.21 381.71 317.87 381.71 331.37 401.69 339.71"/>
  <polygon class="cls-1" points="381.71 317.87 336.32 298.93 336.32 312.43 381.71 331.37 381.71 317.87"/>
  <polygon class="cls-5" points="385.7 71.86 426.84 54.7 325.86 12.57 284.42 29.86 385.7 71.86"/>
  <polygon class="cls-5" points="224.88 54.7 325.86 96.83 364.29 80.79 263.31 38.66 224.88 54.7"/>
  <path class="cls-6" d="M215.62,180.14l104.44,43.57v-116.74l-104.44-43.57v116.74ZM220.28,121.21l65.38,27.28v13.5l-65.38-27.28v-13.5ZM220.28,141.6l65.38,27.28v13.5l-65.38-27.28v-13.5ZM220.28,161.99l65.38,27.28v13.5l-65.38-27.28v-13.5Z"/>
  <polygon class="cls-2" points="393.85 119.9 372.41 128.85 372.41 89.97 331.66 106.97 331.66 223.72 436.09 180.14 436.09 63.4 393.85 81.03 393.85 119.9"/>
  <polygon class="cls-6" points="263.31 38.66 364.29 80.79 385.7 71.86 284.42 29.86 263.31 38.66"/>
  <polygon class="cls-5" points="393.85 119.9 393.85 81.03 372.41 89.97 372.41 128.85 393.85 119.9"/>
  <polygon class="cls-2" points="285.66 189.26 220.28 161.99 220.28 175.49 285.66 202.76 285.66 189.26"/>
  <polygon class="cls-2" points="285.66 168.88 220.28 141.6 220.28 155.1 285.66 182.37 285.66 168.88"/>
  <polygon class="cls-2" points="285.66 148.49 220.28 121.21 220.28 134.71 285.66 161.99 285.66 148.49"/>
</svg>